<svg width="64" height="83" viewBox="0 0 64 83" fill="none" xmlns="http://www.w3.org/2000/svg">
<g clip-path="url(#clip0_0_988)">
<path d="M63.5 32C63.5 49.397 49.397 63.5 32 63.5C14.603 63.5 0.5 49.397 0.5 32C0.5 14.603 14.603 0.5 32 0.5C49.397 0.5 63.5 14.603 63.5 32Z" stroke="white" stroke-opacity="0.08"/>
<path d="M21.6038 79V72.4434H21.6975L26.2854 79H27.3108V70.5449H26.2678V77.125H26.1741L21.5862 70.5449H20.5608V79H21.6038ZM33.5117 77.3652C33.248 77.9219 32.6973 78.2207 31.8828 78.2207C30.8105 78.2207 30.1133 77.4297 30.0605 76.1816V76.1348H34.6016V75.748C34.6016 73.7852 33.5645 72.5723 31.8594 72.5723C30.125 72.5723 29.0117 73.8613 29.0117 75.8477C29.0117 77.8457 30.1074 79.1113 31.8594 79.1113C33.2422 79.1113 34.2266 78.4434 34.5195 77.3652H33.5117ZM31.8477 73.4629C32.8496 73.4629 33.5176 74.2012 33.541 75.3203H30.0605C30.1367 74.2012 30.8398 73.4629 31.8477 73.4629ZM44.1189 72.6836H43.1052L41.863 77.7344H41.7693L40.3572 72.6836H39.3904L37.9783 77.7344H37.8845L36.6423 72.6836H35.6228L37.3923 79H38.4119L39.8181 74.1133H39.9119L41.324 79H42.3494L44.1189 72.6836Z" fill="#F9F9F9"/>
<path d="M33 23V31H41V33H33V41H31V33H23V31H31V23H33Z" fill="#F9F9F9"/>
</g>
<defs>
<clipPath id="clip0_0_988">
<rect width="64" height="83" fill="white"/>
</clipPath>
</defs>
</svg>
